<svg width="333" height="278" viewBox="0 0 333 278" fill="none" xmlns="http://www.w3.org/2000/svg">
<path d="M2.14232 254.029C0.97565 254.768 0.628469 256.312 1.36687 257.479L13.3998 276.491C14.1382 277.657 15.6826 278.005 16.8493 277.266C18.016 276.528 18.3631 274.983 17.6247 273.817L6.92876 256.917L23.8284 246.221C24.995 245.483 25.3422 243.938 24.6038 242.772C23.8654 241.605 22.321 241.258 21.1544 241.996L2.14232 254.029ZM331.053 5.23565C332.288 4.61774 332.788 3.11587 332.17 1.88115C331.552 0.646425 330.05 0.146404 328.816 0.764319L331.053 5.23565ZM2.93099 258.581C56.2098 270.558 101.447 275.067 134.824 265.815C151.587 261.168 165.437 253.029 175.771 240.576C186.096 228.135 192.761 211.57 195.48 190.317L190.52 189.683C187.89 210.242 181.501 225.843 171.924 237.383C162.357 248.911 149.459 256.569 133.488 260.997C101.397 269.893 57.2221 265.661 4.02765 253.703L2.93099 258.581ZM195.48 190.317C206.061 107.599 256.016 42.7877 331.053 5.23565L328.816 0.764319C252.438 38.9873 201.333 105.153 190.52 189.683L195.48 190.317Z" fill="white" fill-opacity="0.5"/>
</svg>
