<svg width="419" height="332" viewBox="0 0 419 332" fill="none" xmlns="http://www.w3.org/2000/svg">
<path d="M417.239 309.883C418.293 310.776 418.422 312.353 417.53 313.406L402.979 330.568C402.086 331.621 400.509 331.751 399.455 330.858C398.402 329.966 398.272 328.388 399.165 327.335L412.099 312.08L396.844 299.146C395.791 298.253 395.661 296.676 396.554 295.622C397.447 294.569 399.024 294.439 400.077 295.332L417.239 309.883ZM2.23392 5.21009C1.0133 4.56474 0.546944 3.05209 1.19228 1.83147C1.83764 0.610862 3.35028 0.144505 4.5709 0.789848L2.23392 5.21009ZM415.828 314.281C351.814 319.553 297.327 318.086 256.481 303.98C236.015 296.913 218.898 286.648 205.732 272.405C192.558 258.153 183.45 240.036 178.835 217.444L183.734 216.443C188.189 238.252 196.923 255.509 209.404 269.011C221.894 282.523 238.248 292.394 258.113 299.254C297.927 313.004 351.539 314.558 415.417 309.298L415.828 314.281ZM178.835 217.444C160.882 129.564 96.0833 54.8285 2.23392 5.21009L4.5709 0.789848C99.3532 50.9015 165.403 126.714 183.734 216.443L178.835 217.444Z" fill="white" fill-opacity="0.5"/>
</svg>
